<svg xmlns="http://www.w3.org/2000/svg" viewBox="0 0 1400 750">
  <defs>
    <style>
      .primary-blue { fill: #2C5F8D; }
      .secondary-teal { fill: #287D7D; }
      .accent-orange { fill: #E67E50; }
      .success-green { fill: #52A675; }
      .warning-red { fill: #C9594C; }
      .light-blue-bg { fill: #E8F1F5; }
      .light-teal-bg { fill: #E8F3F3; }
      .light-orange-bg { fill: #FCF0EB; }
      .light-green-bg { fill: #E8F5EE; }
      .light-red-bg { fill: #FAE8E6; }

      .title { font: bold 32px sans-serif; fill: #2C3E50; }
      .subtitle { font: 18px sans-serif; fill: #5A6C7D; }
      .phase-title { font: bold 20px sans-serif; fill: #ffffff; }
      .phase-desc { font: 16px sans-serif; fill: #2C3E50; }
      .timeline-label { font: bold 16px sans-serif; fill: #5A6C7D; }
      .card-border { stroke: #5A6C7D; stroke-width: 2; }
    </style>
  </defs>

  <!-- Title -->
  <text x="700" y="45" text-anchor="middle" class="title">Getting Started: 6-Month Roadmap to Production</text>
  <text x="700" y="75" text-anchor="middle" class="subtitle">Proven path from planning to first production model</text>

  <!-- Timeline Line -->
  <line x1="100" y1="150" x2="1300" y2="150" stroke="#5A6C7D" stroke-width="6"/>

  <!-- Week 1-2: Assessment -->
  <circle cx="200" cy="150" r="22" class="primary-blue card-border"/>
  <text x="200" y="128" text-anchor="middle" class="timeline-label">Week 1-2</text>

  <rect x="100" y="190" width="200" height="220" class="light-blue-bg card-border" rx="8"/>
  <rect x="100" y="190" width="200" height="55" class="primary-blue" rx="8"/>
  <text x="200" y="225" text-anchor="middle" class="phase-title">Assessment</text>
  <text x="120" y="275" class="phase-desc">✓ Identify constraints</text>
  <text x="120" y="305" class="phase-desc">✓ Evaluate infrastructure</text>
  <text x="120" y="335" class="phase-desc">✓ Define success criteria</text>

  <!-- Week 3-4: Design -->
  <circle cx="450" cy="150" r="22" class="secondary-teal card-border"/>
  <text x="450" y="128" text-anchor="middle" class="timeline-label">Week 3-4</text>

  <rect x="350" y="190" width="200" height="220" class="light-teal-bg card-border" rx="8"/>
  <rect x="350" y="190" width="200" height="55" class="secondary-teal" rx="8"/>
  <text x="450" y="225" text-anchor="middle" class="phase-title">Design</text>
  <text x="370" y="275" class="phase-desc">✓ Choose hybrid/cloud/</text>
  <text x="380" y="300" class="phase-desc">on-prem strategy</text>
  <text x="370" y="335" class="phase-desc">✓ Design Kubernetes infra</text>
  <text x="370" y="365" class="phase-desc">✓ Select ML tools</text>

  <!-- Month 2-3: Infrastructure -->
  <circle cx="700" cy="150" r="22" class="accent-orange card-border"/>
  <text x="700" y="128" text-anchor="middle" class="timeline-label">Month 2-3</text>

  <rect x="600" y="190" width="200" height="220" class="light-orange-bg card-border" rx="8"/>
  <rect x="600" y="190" width="200" height="55" class="accent-orange" rx="8"/>
  <text x="700" y="225" text-anchor="middle" class="phase-title">Infrastructure</text>
  <text x="620" y="275" class="phase-desc">✓ Deploy Kubernetes</text>
  <text x="620" y="305" class="phase-desc">✓ Configure GPU nodes</text>
  <text x="620" y="335" class="phase-desc">✓ Setup multi-tenancy</text>

  <!-- Month 4-6: Production -->
  <circle cx="1000" cy="150" r="22" class="success-green card-border"/>
  <text x="1000" y="128" text-anchor="middle" class="timeline-label">Month 4-6</text>

  <rect x="900" y="190" width="200" height="220" class="light-green-bg card-border" rx="8"/>
  <rect x="900" y="190" width="200" height="55" class="success-green" rx="8"/>
  <text x="1000" y="225" text-anchor="middle" class="phase-title">Production!</text>
  <text x="920" y="275" class="phase-desc">✓ Migrate POC to KServe</text>
  <text x="920" y="305" class="phase-desc">✓ Implement CI/CD</text>
  <text x="920" y="335" class="phase-desc">✓ Setup monitoring</text>
  <text x="920" y="365" style="font: bold 18px sans-serif; fill: #52A675;">✓ MODEL #1 LIVE!</text>

  <!-- Success Metrics -->
  <rect x="100" y="460" width="1200" height="250" fill="#F8F9FA" class="card-border" rx="8"/>
  <text x="700" y="500" text-anchor="middle" style="font: bold 26px sans-serif; fill: #2C3E50;">Success Milestones</text>

  <rect x="130" y="530" width="260" height="150" fill="#ffffff" class="card-border" rx="5"/>
  <text x="260" y="560" text-anchor="middle" style="font: bold 18px sans-serif; fill: #2C5F8D;">End of Month 2</text>
  <text x="145" y="590" style="font: 16px sans-serif; fill: #2C3E50;">✓ Architecture decided</text>
  <text x="145" y="620" style="font: 16px sans-serif; fill: #2C3E50;">✓ Kubernetes cluster live</text>
  <text x="145" y="650" style="font: 16px sans-serif; fill: #2C3E50;">✓ GPU nodes configured</text>

  <rect x="420" y="530" width="260" height="150" fill="#ffffff" class="card-border" rx="5"/>
  <text x="550" y="560" text-anchor="middle" style="font: bold 18px sans-serif; fill: #E67E50;">End of Month 4</text>
  <text x="435" y="590" style="font: 16px sans-serif; fill: #2C3E50;">✓ Multi-tenancy working</text>
  <text x="435" y="620" style="font: 16px sans-serif; fill: #2C3E50;">✓ Cost tracking enabled</text>
  <text x="435" y="650" style="font: 16px sans-serif; fill: #2C3E50;">✓ CI/CD pipeline built</text>

  <rect x="710" y="530" width="260" height="150" class="light-green-bg card-border" rx="5"/>
  <text x="840" y="560" text-anchor="middle" style="font: bold 20px sans-serif; fill: #52A675;">🎯 End of Month 6</text>
  <text x="725" y="590" style="font: bold 18px sans-serif; fill: #52A675;">✓ MODEL #1 LIVE!</text>
  <text x="725" y="620" style="font: 16px sans-serif; fill: #2C3E50;">✓ Serving real users</text>
  <text x="725" y="650" style="font: 16px sans-serif; fill: #2C3E50;">✓ Delivering business value</text>

  <rect x="1000" y="530" width="260" height="150" fill="#ffffff" class="card-border" rx="5"/>
  <text x="1130" y="560" text-anchor="middle" style="font: bold 18px sans-serif; fill: #C9594C;">End of Month 12</text>
  <text x="1015" y="590" style="font: 16px sans-serif; fill: #2C3E50;">✓ 3-5 models in production</text>
  <text x="1015" y="620" style="font: 16px sans-serif; fill: #2C3E50;">✓ GPU utilization optimized</text>
  <text x="1015" y="650" style="font: 16px sans-serif; fill: #2C3E50;">✓ Platform proven at scale</text>
</svg>